<svg xmlns="http://www.w3.org/2000/svg" xmlns:xlink="http://www.w3.org/1999/xlink" width="41" height="2023" viewBox="0 0 41 2023" style="background:#000"><svg viewBox="0 0 32 32" width="32" height="32" id="a-we-in-facebook" y="0">
<path fill="#FFF" d="M19.8 6.5h5.5V.8h-5.5c-4.2 0-7.7 2.9-7.7 6.7v2.8H7.7V16h4.4v15.2h6.6V16h5.5l1.1-5.7h-6.6V7.5c0-.5.5-1 1.1-1z">
</path>
</svg>

<svg viewBox="0 0 32 32" width="32" height="32" id="a-we-in-google" y="40">
<path fill="#FFF" d="M1.7 8.3c0 2.5.9 4.5 2.6 5.6 1.4.8 3.1 1 4 1h.5s-.3 1.7 1.1 3.5c-2.4 0-9.9.5-9.9 6.5 0 6.1 6.9 6.4 8.3 6.4h.5c.9 0 3.2-.1 5.3-1.1 2.7-1.2 4.1-3.6 4.1-6.7s-2.1-4.9-3.7-6.2c-.9-.8-1.8-1.5-1.8-2.2 0-.7.6-1.2 1.4-1.9 1.2-1 2.4-2.5 2.4-5.5 0-2.4-.3-4.2-2.4-5.4.2-.1 1-.2 1.4-.2 1.1-.2 2.7-.3 2.7-1.2V.8H10c-.1 0-8.3.2-8.3 7.5zM15 24c.2 2.4-2 4.2-5.2 4.5-3.3.2-6-1.2-6.1-3.7-.1-1.1.5-2.3 1.5-3.3S7.7 20 9.3 20h.6c2.9 0 4.9 1.7 5.1 4zM12.8 6.7c.8 2.8-.4 5.6-2.3 6.2h-.7c-1.8 0-3.5-1.7-4.2-4.2-.3-1.3-.2-2.5.1-3.7.4-1.1 1.1-1.9 2.1-2.1.2 0 .4-.1.6-.1 2.2 0 3.6.9 4.4 3.9zm13.9 5.8V7.2h-3.6v5.3h-5.3V16h5.3v5.3h3.6V16H32v-3.5h-5.3z"></path>
</svg>

<svg viewBox="0 0 32 32" width="32" height="32" id="a-we-in-instagram" y="80">
<path fill="#FFF" d="M16.5 15c0-.3-.2-.5-.5-.5-1.5 0-2.7 1.1-2.7 2.5 0 .3.2.5.5.5s.5-.2.5-.5c0-.8.8-1.5 1.6-1.5.4 0 .6-.2.6-.5zm3.8 2c0 2.2-2 4-4.3 4s-4.3-1.8-4.3-4 1.9-4 4.3-4 4.3 1.9 4.3 4zM3 26.1h26V24H3v2.1zM22.5 17c0-3.4-2.9-6.1-6.6-6.1S9.4 13.6 9.4 17s2.9 6.1 6.6 6.1 6.5-2.8 6.5-6.1zM5.3 6.9h6.6V4.8H5.3v2.1zM3 9.9h26v-4H15L13.9 8H3v1.9zm28.2-4v20.3c0 1.1-1 2.1-2.2 2.1H3c-1.2 0-2.2-.9-2.2-2.1V5.9c0-1.1 1-2.1 2.2-2.1h26c1.2 0 2.2.9 2.2 2.1z"></path>
</svg>

<svg viewBox="0 0 32 32" width="32" height="32" id="a-we-in-twitter" y="120">
<path fill="#FFF" d="M30.8 5.2c-1.1.6-2.3.9-3.5 1.1 1.2-.8 2.3-2.4 2.6-4-1.2.8-2.4 1.4-3.9 1.8-1.1-1.4-2.6-2.4-4.4-2.4-3.3 0-6 3.2-6 7.2 0 .6.1 1 .2 1.6-5-.3-9.5-3.1-12.5-7.5-.6 1-.9 2.4-.9 3.6 0 2.5 1 4.7 2.6 6-.9 0-1.9-.4-2.7-.8v.1c0 3.5 2.1 6.4 4.9 7.1-.6.2-1 .3-1.6.3-.4 0-.8-.1-1.1-.1.8 2.8 3 4.9 5.7 5-2.1 2-4.7 3.1-7.5 3.1-.6 0-.9 0-1.5-.1 2.6 2.1 5.9 3.2 9.3 3.2 11.2 0 17.2-11 17.2-20.5v-.8c1.2-1.2 2.2-2.4 3.1-3.9z"></path>
</svg>

<svg viewBox="0 0 32 32" width="32" height="32" id="a-we-in-vcontacte" y="160">
<path fill="#FFF" d="M22.6 15.1c1.1-1.5 1.9-3.4 1.9-5.6 0-4.7-3.6-8.6-8-8.6h-10V31h12c4.4 0 8-3.9 8-8.6 0-3.1-1.5-5.8-3.9-7.3zM12.5 5.3h3.2c1.8 0 3.2 2 3.2 4.3s-1.4 4.3-3.2 4.3h-3.2V5.3zm4.9 21.4h-5v-8.6h5c1.9 0 3.3 2 3.3 4.3s-1.4 4.3-3.3 4.3z"></path>
</svg>


 </svg>